<svg version="1.0" id="Layer_1" xmlns="http://www.w3.org/2000/svg" xmlns:xlink="http://www.w3.org/1999/xlink" x="0px" y="0px"
	 viewBox="0 0 235 657" style="enable-background:new 0 0 235 657;" xml:space="preserve">
<style type="text/css">
	.st0{fill:#5BC8F3;}
</style>
<path class="st0" d="M207.6,339.7c0-2.8,0.5-5.8,0.7-8.5c0.2-2.4-0.6-5-0.7-7.5c-0.5-11.2-0.8-23.2-1-34.7
	c-0.3-12.3,0.2-25.4-1.6-37.4c-0.9-5.6-3.4-11.3-4.4-16.9c-3-16.7-8.1-58.2-8.1-75.5c0-11.4-1.8-23.9-7.8-33.6
	c-7.3-11.9-23.9-15.2-36-19.8c-4.3-1.6-11.2-3.9-13.2-8.6c-2-4.8-1.5-10.4-1.4-16.4c3.5-4.5,8-9.8,9.1-14c3.2-0.2,2.6-6.2,3-7.7
	c0.5-1.5,3-10.3,2.2-11.5c-0.8-1.2-1.8,0-1.8,0s1.8-16-1.6-25.4c-2.7-7.3-12.7-17.3-27.4-17.3v0c0,0,0,0,0,0c0,0,0,0,0,0v0
	c-14.7,0-24.6,10-27.2,17.3c-3.4,9.3-1.6,25.4-1.6,25.4s-1-1.2-1.8,0c-0.8,1.2,1.7,10,2.2,11.5c0.5,1.5-0.2,7.4,3,7.7
	c1.1,4.2,5.5,9.5,9.1,14c0.1,6,0.7,11.6-1.4,16.4c-2,4.7-9,7-13.2,8.6c-12.1,4.6-28.7,7.9-36,19.8c-6,9.7-7.8,22.2-7.8,33.6
	c0,17.3-5.1,58.8-8.1,75.5c-1,5.6-3.5,11.3-4.4,16.9c-1.8,11.9-1.4,25.1-1.6,37.4c-0.3,11.6-0.5,23.5-1,34.7c-0.1,2.4-0.8,5-0.7,7.5
	c0.2,2.8,0.7,5.8,0.7,8.5c0,7.9-2.8,17.3-1.7,25c0.8,5.7,4.7,15.8,8.6,19.3c3.4,3.1,10.5,7.9,14,8.2c0.3,0,1.1-2.8,0.3-4.6
	c-1.3-2.9-5.9-5.2-7.1-7.4c-1.2-2.2-1.3-5.1-1.5-7.6c-0.2-2.3-0.7-4.7,0-7c0.3-1,1.3-3.9,2.6-3.9c0.3,0,1.9,1.7,2.1,2.9
	c0.3,2.2,0.1,4.7,0.3,6.9c0.2,2.7,1.8,8.2,4.4,8.7c2,0.3,2.1-0.3,2.6-1.3c0.5-1-0.6-5.1-0.2-6.6c0.4-1.4,0-4.1-0.3-5.3
	c-0.7-3.3,0.2-7.5-0.2-11c-0.4-3.7-1.9-8.3-3.9-11.3c-1.7-2.5-4.2-5.2-5-8.1c-0.9-3.4-1.3-8.2-0.4-11.8c3.8-14,8.6-28.6,10.8-43.2
	c2.3-14.6,4.3-29.6,5.9-44.2c0.6-5.4,6.6-45.3,6.7-46.4c2.3,9.5,4.8,27.1,5.9,47c0.5,8.5-2,26.1-4.4,42c-2.4,16.1-8.2,27.8-9.6,54
	c-1.1,20.8,0.2,42.4,2,63.3c1.3,15.7,2.8,31.5,5.9,46.7c1.2,5.8,0.7,12.2,0.4,18.1c-0.2,5.4,0.5,11,0.2,16.3
	c-0.6,10.5-4.2,21-4.1,31.7c0.3,23.3,4.7,47.8,7.9,71.2c0.9,6.5,3,15.1,1.5,20.5c-1.4,4.8-6.5,9.9-9.1,15.2c-1.7,3.5-6.4,5.8-9.4,8
	c-1.9,1.3-3.6,3.2-5.3,4.6c-0.8,0.6-3.4,2.3-4.2,3.5c-1.1,1.7-0.3,2.5-0.1,2.5c-1.1,1.1-1.1,2.9-0.1,3.1c-0.6,1.7,0.3,2.7,1.3,2.5
	c-0.7,1.4,0.7,2.9,2.1,2.4c0.7,2.9,4.5,2.3,6.4,1.2c0.3,3.2,4.4,3.9,6.7,3.4c2.7-0.5,5.3-1.4,7.6-3.3c1-0.8,2.2-3.1,2.8-3.7
	c1.8-1.6,4.4-2.4,6.2-4.1c1.6-1.6,2.1-4.2,3.2-5.9c1.1-1.7,3.5-3.7,5.5-4c2.8-0.5,6.6-1.5,8-4.7c1.3-3.1,0.9-7.4,0.1-10.6
	c-0.5-2.4-1.5-4.9-1.5-7.3c0-0.8,0.6-2.9,0.3-5.2c-0.3-2.5-1.8-4.4-2.1-6.3c-0.5-3-0.6-6.2-0.6-9.3c-0.1-8.7,1.7-17.7,3.2-26.1
	c1.9-11,4.2-22.3,4.6-33.5c0.3-7,0.1-14.1-0.7-21.1c-0.4-3.8-1.2-7.8-0.8-11.5c1.2-10.5,6.5-20.8,7.8-31.4c1.3-10.3-0.4-21,0.5-31.4
	c1-11.9,3.1-24,4.9-35.8c1-6.9,2.1-13.9,3.5-20.7c0.5-2.3,2-9.4,3.1-13.3c0.4,0.1,1.5,0.3,2,0.3v0c0,0,0,0,0,0c0,0,0,0,0,0
	c0,0,0,0,0,0c0,0,0,0,0,0v0c0.5,0,1.6-0.1,2-0.3c1.1,3.9,2.6,11,3.1,13.3c1.5,6.8,2.5,13.8,3.5,20.7c1.8,11.9,3.9,23.9,4.9,35.8
	c0.8,10.4-0.9,21,0.5,31.4c1.4,10.7,6.7,20.9,7.8,31.4c0.4,3.7-0.4,7.8-0.8,11.5c-0.7,7-1,14.1-0.7,21.1c0.5,11.2,2.7,22.4,4.6,33.5
	c1.5,8.5,3.3,17.5,3.2,26.1c0,3.1-0.1,6.3-0.6,9.3c-0.3,1.9-1.8,3.8-2.1,6.3c-0.3,2.3,0.3,4.4,0.3,5.2c0,2.4-0.9,4.9-1.5,7.3
	c-0.7,3.2-1.2,7.5,0.1,10.6c1.3,3.2,5.1,4.2,8,4.7c2.1,0.3,4.4,2.3,5.5,4c1.1,1.7,1.6,4.3,3.2,5.9c1.8,1.7,4.4,2.5,6.2,4.1
	c0.6,0.5,1.8,2.8,2.8,3.7c2.3,1.9,4.9,2.7,7.6,3.3c2.3,0.4,6.5-0.3,6.7-3.4c1.9,1,5.7,1.6,6.4-1.2c1.3,0.4,2.7-1,2.1-2.4
	c1,0.2,1.9-0.8,1.3-2.5c0.9-0.1,1-2-0.1-3.1c0.2,0,1-0.8-0.1-2.5c-0.8-1.2-3.4-2.9-4.2-3.5c-1.8-1.5-3.4-3.3-5.3-4.6
	c-3-2.1-7.6-4.4-9.4-8c-2.6-5.2-7.7-10.3-9.1-15.2c-1.5-5.4,0.6-14,1.5-20.5c3.2-23.4,7.6-47.9,7.9-71.2c0.1-10.6-3.5-21.2-4.1-31.7
	c-0.3-5.3,0.4-10.9,0.2-16.3c-0.2-5.9-0.7-12.3,0.4-18.1c3.1-15.3,4.6-31,5.9-46.7c1.8-20.9,3.1-42.4,2-63.3
	c-1.4-26.2-7.2-37.9-9.6-54c-2.4-16-4.8-33.6-4.4-42c1.1-20,3.6-37.5,5.9-47c0.1,1.1,6.1,41,6.7,46.4c1.7,14.5,3.7,29.6,5.9,44.2
	c2.3,14.7,7.1,29.3,10.8,43.2c1,3.6,0.5,8.4-0.4,11.8c-0.8,2.9-3.3,5.6-5,8.1c-2,3-3.5,7.7-3.9,11.3c-0.4,3.5,0.5,7.7-0.2,11
	c-0.3,1.2-0.7,3.9-0.3,5.3c0.4,1.4-0.7,5.6-0.2,6.6c0.5,1,0.6,1.6,2.6,1.3c2.5-0.4,4.2-5.9,4.4-8.7c0.2-2.2,0-4.6,0.3-6.9
	c0.2-1.3,1.8-2.9,2.1-2.9c1.3,0,2.2,2.8,2.6,3.9c0.7,2.3,0.2,4.7,0,7c-0.2,2.5-0.3,5.4-1.5,7.6c-1.2,2.2-5.7,4.4-7.1,7.4
	c-0.8,1.9,0,4.6,0.3,4.6c3.5-0.2,10.6-5.1,14-8.2c3.9-3.5,7.8-13.5,8.6-19.3C210.4,357,207.6,347.6,207.6,339.7z"/>
</svg>