<svg version="1.0" id="Layer_1" xmlns="http://www.w3.org/2000/svg" xmlns:xlink="http://www.w3.org/1999/xlink" x="0px" y="0px"
	 viewBox="0 0 235 657" style="enable-background:new 0 0 235 657;" xml:space="preserve">
<style type="text/css">
	.st0{fill:#5BC8F3;}
</style>
<path class="st0" d="M212.7,345c-1.3-3.7-1.9-7.3-2.2-8.3c-0.7-2.4-0.1-3.1-0.5-5c-0.3-1.4-1-2.1-2-4c-0.2-0.5-1.4-7.1-1.6-11.8
	c-1.1-10.8-2.5-62.5-4.3-72c-1.9-10.3-5.5-18.1-6.8-25c-1.4-6.9-0.4-14-1-28.6c-0.2-5.4-2.2-16.8-2.3-26.8
	c-0.1-10.9-1-23.7-7.3-34.8c-5.6-9.8-13.1-12-23.1-14.7c-10.2-2.7-21.4-8.9-24.8-14.5c-0.9-1.6-1.9-4.2-2.2-8.7
	c14.1-0.3,26-4.8,34.9-15.7c-12.5-2.1-13.9-14.2-13-23.3c0.8-9.2-0.3-26.6-4.2-34.6c-7.4-15.2-29.8-21.5-43.5-14.9
	C96.9,0.3,90.1,8.3,85.1,14.5c-5,6.2-19.8,41.7-12.3,58.2c6.1,13.6,19.1,17.1,23.7,17.7c0.8,0.1,2.9,0.3,4,0.4
	c-0.3,4.5-1.3,7.1-2.2,8.7c-3.3,5.6-14.5,11.7-24.8,14.5c-10,2.6-17.6,4.9-23.1,14.7c-6.3,11.1-6.6,24.7-7.3,34.8
	c-0.7,10-2.1,21.4-2.3,26.8c-0.6,14.6,0.3,21.7-1,28.6c-1.4,6.9-4.9,14.7-6.8,25c-1.7,9.4-3.2,61.2-4.3,72
	c-0.3,4.6-1.4,11.3-1.6,11.8c-1,2-1.6,2.6-2,4c-0.4,1.9,0.2,2.6-0.5,5c-0.3,1-1,4.6-2.2,8.3c-1.8,5.2-4.3,10.8-4.3,11.9
	c0,3.4,2.3,15.3,4.5,18.2c2.1,2.7,12.2,8.8,13.7,8.8c1.5,0,2.2-1.5,2.2-1.5s2.5,0.9,2.9-0.9c0.5-2.4-2.4-3.8-3.5-4.7
	c-1.1-0.9-5.1-3-6.6-6c-1.5-2.9-1.1-14.1,0.6-14.4c2.6-0.5,1.6,5.3,1.7,7.5c0.2,2.2,0.2,7.6,3.5,7.8c4.9,0.3,2.5-10.7,2.5-13.6
	c0-2.9,0.9-6.6,1.2-9.1c0.5-5.1-3.1-10.6-3.1-14.9c0-1.2,1.3-6.4,3.2-13.6c4.3-17.8,20.2-71.7,20.2-80.3c0-6.4,1.3-16.9,1.9-23.5
	c0.4-4.1,3.3-18.1,5-31.7c1.7,4.4,3.3,8,5.5,11c0.4,8,1,17.8,1.5,22.7c0.7,7.2,4.1,13.4,2.8,23.2c-0.9,6.8-3.5,12.8-5.8,17.6
	c-4.8,10.2-9.2,24.2-10.5,32.3c-2.5,15.1-3.1,21.8-4,27c-0.9,5.2-3.3,24.8-3.1,37.5c0.2,12.6,13.5,89.9,13.7,92.9
	c0.2,3-0.7,9.4-0.4,13.3c0.2,3.9,1.7,11.1,1.7,14.8c0,3.7-5.4,21.8-5.4,31.1c-0.2,34.2,8.6,92.2,8.8,97.2c0.2,5-1.1,8-1.4,9.9
	c-0.3,1.9-2.1,5.4-1.7,7.7c-3.5,6.7-13.3,16.8-16,18.1c-2.7,1.3-4.2,3.1-5,4.7c-0.3,0.7,0,1.6,0.5,1.9c-0.7,2,0.8,2.9,1.8,2.8
	c0,0.9,0.6,1.5,1.1,1.8c1.8,1,3.1-0.6,3.1-0.6s-0.2,1.5,1.8,2.6c1.8,1,4.4-1.1,4.4-1.1s-1.2,2.3,1.4,3.7c1.9,1,5.2,0.7,7.7-0.5
	c4.1-1.8,7.1-5.7,7.5-6c0.6-0.6,3.1-1.1,4.8-2.7c2.7-2.4,2.4-3.9,3.3-4.9c0.5-0.6,4.9-0.7,8-3.8c2.3-2.3,1.4-7.3,0.9-9.2
	c-0.8-3.2-2.5-6.8-2.5-7.9c0-1.1-0.1-4.5-0.2-6.6c-0.1-2.1-2.5-6.4-2.7-12.2c-0.2-5,11.5-73,11.2-82.8c-0.3-9.8-2.7-15-2.5-21.5
	c0.2-6.5,6.3-21.3,7.4-35c1.1-13.7-2.6-17.2-2.2-23.9c0.4-6.7,11.8-69.2,12.2-76.8c0.3-5.8,0.3-10.3,0.4-13.5c0.2,0.1,0.7,0.1,1,0.1
	l0,0c0,0,0,0,0.1,0c0,0,0,0,0.1,0l0,0c0.4,0,1.4,0,1.5-0.1c0.1,3.1,0,7.6,0.4,13.5c0.4,7.6,11.8,70.1,12.2,76.8
	c0.4,6.7-3.3,10.2-2.2,23.9c1.1,13.7,7.2,28.5,7.4,35c0.2,6.5-2.2,11.8-2.5,21.5c-0.3,9.8,11.3,77.8,11.2,82.8
	c-0.2,5.7-2.5,10-2.7,12.2c-0.1,2.1-0.2,5.5-0.2,6.6c0,1.1-1.7,4.7-2.5,7.9c-0.5,1.9-1.4,6.9,0.9,9.2c3.1,3.1,7.4,3.2,8,3.8
	c0.9,1,0.6,2.5,3.3,4.9c1.7,1.5,4.2,2.1,4.8,2.7c0.4,0.3,3.4,4.2,7.5,6c2.6,1.1,5.8,1.5,7.7,0.5c2.6-1.4,1.4-3.7,1.4-3.7
	s2.5,2,4.4,1.1c2-1,1.8-2.6,1.8-2.6s1.2,1.6,3.1,0.6c0.5-0.2,1.1-0.9,1.1-1.8c1,0.2,2.5-0.8,1.8-2.8c0.5-0.4,0.8-1.3,0.5-1.9
	c-0.7-1.5-2.3-3.3-5-4.7c-2.7-1.3-12.5-11.4-16-18.1c0.4-2.3-1.5-5.8-1.7-7.7c-0.3-1.9-1.6-4.9-1.4-9.9c0.2-5,9-63,8.8-97.2
	c-0.1-9.4-5.4-27.4-5.4-31.1c0-3.7,1.5-10.9,1.7-14.8c0.2-3.9-0.7-10.2-0.4-13.3c0.2-3,12.6-80.3,12.8-92.9
	c0.2-12.6-1.4-32.2-2.3-37.5c-0.9-5.2-1.6-11.9-4-27c-1.3-8.1-5.7-22.1-10.5-32.3c-2.2-4.7-4.8-10.8-5.8-17.6
	c-1.3-9.8,2.1-16,2.8-23.2c0.4-4.9,1.1-14.8,1.5-22.7c3.1-3.9,4.1-6.5,5.5-11c1.7,13.6,4.6,27.6,5,31.7c0.6,6.6,1.9,17.1,1.9,23.5
	c0,8.6,15.9,62.5,20.2,80.3c1.9,7.2,3.2,12.4,3.2,13.6c0,4.4-3.6,9.8-3.1,14.9c0.3,2.5,1.2,6.2,1.2,9.1c0,2.9-2.4,13.9,2.5,13.6
	c3.4-0.2,3.4-5.6,3.5-7.8c0.2-2.2-0.9-7.9,1.7-7.5c1.6,0.3,2,11.5,0.6,14.4c-1.5,2.9-5.5,5-6.6,6c-1.1,0.9-4,2.4-3.5,4.7
	c0.4,1.8,2.9,0.9,2.9,0.9s0.7,1.5,2.2,1.5c1.5,0,11.6-6.1,13.7-8.8c2.2-2.9,4.5-14.8,4.5-18.2C217,355.8,214.5,350.2,212.7,345z"/>
</svg>