<svg version="1.0" id="Layer_1" xmlns="http://www.w3.org/2000/svg" xmlns:xlink="http://www.w3.org/1999/xlink" x="0px" y="0px"
	 viewBox="0 0 235 657" style="enable-background:new 0 0 235 657;" xml:space="preserve">
<style type="text/css">
	.st0{fill:#e7ebd1;}
</style>
<path class="st0" d="M213.7,352c-1.3-3.7-1.9-7.3-2.2-8.3c-0.7-2.4-0.1-3.1-0.5-5c-0.3-1.4-0.4-2.1-1.4-4c-0.2-0.4,0-13.5-0.3-18.1
	c-0.6-6.3-1.1-24.5-2.2-40.5c-0.8-11.4-2.1-21.7-2.9-25.7c-1.9-10.3-4.9-20.9-5.5-27.9c-0.8-9.8-1.6-22.8-0.6-37.3
	c1.1-14.8-1.3-49.5-13.5-63.1c-6.3-7-18.6-10.5-24.5-11.5c-10.4-1.6-17.6-4.6-20.9-10.2c-0.8-1.3-1.7-5.2-2.3-8.9
	c12.3-1.8,23.8-6.3,32.2-16.5c-12.4-2.1-13.8-14.1-13-23.3c0.8-9.1-0.3-26.5-4.2-34.5C144.4,2.3,121.3-4,107.6,2.6
	C96,0.5,90,8.5,85.1,14.7c-5,6.2-19.7,41.5-12.3,58c6.1,13.5,18.2,17,22.8,17.7c0.8,0.1,1.8,0.3,2.9,0.4c-0.3,4.5-1.3,8.5-2.2,10
	c-3.3,5.6-10.9,8.2-21.3,9.9c-6,0.9-18.2,4.4-24.5,11.5c-12.2,13.7-14.6,48.3-13.5,63.1c1,14.5,0.3,27.5-0.6,37.3
	c-0.6,7-3.6,17.6-5.5,27.9c-0.7,4-2.1,14.5-2.9,26.2c-1.1,15.8-1.5,33.7-2.2,39.9c-0.3,4.6,0,17.6-0.3,18.1c-1,1.9-1.1,2.6-1.4,4
	c-0.4,1.9,0.2,2.6-0.5,5c-0.3,1-1,4.6-2.2,8.3c-1.8,5.2-3.8,10.8-3.8,11.9c0,3.4,2.3,15.2,4.5,18.1c2,2.7,12.2,8.7,13.6,8.7
	c1.5,0,2.2-1.5,2.2-1.5s2.5,0.9,2.9-0.9c0.5-2.4-2.4-3.8-3.4-4.7c-1.1-0.9-5.1-3-6.6-5.9c-1.5-2.9-1.1-14.1,0.6-14.4
	c2.6-0.5,1.3,5.3,1.5,7.4c0.2,2.2,0.4,7.6,3.8,7.8c4.9,0.3,3.1-10.7,3.1-13.6c0-2.9,1.7-6.5,2-9.1c0.5-5.1-1.4-10.5-1.4-14.9
	c0-1.2,0.5-6.4,2.3-13.5c2.5-10.4,8.7-35.2,13.4-55.8C59.4,257,62,244.6,62,241c0-6.4,1.3-16.9,1.9-23.5c0.4-4.1,0.5-13.2,1-17.3
	c0.7,5.3,3.1,6.8,5.8,8.7c0.1,2.9-0.2,5.6,0.2,10.5c0.7,7.2,0.5,12.2-0.8,22c-0.9,6.8-5.1,12.9-6.8,17.8c-4.2,12-7.2,25-8.5,33
	c-2.5,15-4,21.7-4.8,26.9c-0.9,5.2-2,24.8-2,37.4c0.1,40.1,15.3,89.6,15.6,92.7c0.2,3-0.7,9.3-0.4,13.2c0.2,3.9,1.7,11.1,1.7,14.8
	c0,3.7-6.5,18.2-6.5,31c0,49.1,11.9,91.9,12.1,96.9c0.2,5-0.9,8-1.1,9.9c-0.3,1.9-1.3,5.4-0.9,7.7c-3.4,6.6-12.7,16.7-15.4,18
	c-2.7,1.3-4.2,3.1-4.9,4.7c-0.3,0.7,0,1.6,0.5,1.9c-0.7,2,0.8,2.9,1.8,2.8c0,0.9,0.6,1.5,1.1,1.8c1.8,1,3-0.6,3-0.6
	s-0.2,1.5,1.8,2.5c1.8,1,4.4-1.1,4.4-1.1s-1.2,2.3,1.4,3.6c1.9,1,5.2,0.7,7.7-0.5c4.1-1.8,7.1-5.6,7.4-6c0.6-0.6,3.1-1.1,4.8-2.6
	c2.7-2.4,2.4-3.9,3.3-4.9c0.5-0.6,4.8-0.7,7.9-3.8c2.3-2.3,1.4-7.3,0.9-9.1c-0.8-3.2-1.1-6.8-1.1-7.9c0-1.1-0.1-4.5-0.2-6.6
	c-0.1-2.1-1.4-6.4-1.6-12.1c-0.2-5,12-57,12-82.6c0-9.8-3-15-2.8-21.5c0.2-6.5,6.3-21.3,7.4-34.9c1.1-13.7-1.5-17.1-1.1-23.9
	c0.2-3.6,3.9-23.8,6-42.9c1.8-16.5,2.7-27.6,2.9-31.1c0.3-5.8,0.4-10.7,0.5-13.8c0.5,0.1,1,0.2,1.4,0.2l0,0c0,0,0,0,0,0l0,0l0,0
	c0.4,0,0.9-0.1,1.4-0.2c0.1,3.1,0.2,8,0.5,13.8c0.2,3.6,1.1,15,3,31.8c2.1,18.9,5.7,38.6,5.9,42.2c0.4,6.7-2.2,10.2-1.1,23.9
	c1.1,13.7,7.2,28.4,7.4,34.9c0.2,6.5-2.8,11.7-2.8,21.5c0,25.6,12.1,77.6,12,82.6c-0.2,5.7-1.4,10-1.6,12.1
	c-0.1,2.1-0.2,5.5-0.2,6.6c0,1.1-0.3,4.7-1.1,7.9c-0.5,1.9-1.4,6.9,0.9,9.1c3.1,3.1,7.4,3.2,7.9,3.8c0.9,1,0.6,2.5,3.3,4.9
	c1.7,1.5,4.2,2.1,4.8,2.6c0.4,0.3,3.4,4.2,7.4,6c2.5,1.1,5.8,1.5,7.7,0.5c2.6-1.4,1.4-3.6,1.4-3.6s2.5,2,4.4,1.1
	c2-1,1.8-2.5,1.8-2.5s1.2,1.6,3,0.6c0.5-0.2,1.1-0.9,1.1-1.8c1,0.2,2.5-0.8,1.8-2.8c0.5-0.4,0.8-1.3,0.5-1.9
	c-0.7-1.5-2.3-3.3-4.9-4.7c-2.7-1.3-11.9-11.4-15.4-18c0.4-2.3-0.6-5.8-0.9-7.7c-0.3-1.9-1.3-4.9-1.1-9.9c0.2-5,12.1-47.8,12.1-96.9
	c0-12.9-6.5-27.3-6.5-31c0-3.7,1.5-10.9,1.7-14.8c0.2-3.9-0.7-10.2-0.4-13.2c0.2-3,15.5-52.6,15.6-92.7c0-12.6-1.1-32.2-2-37.4
	c-0.9-5.2-2.4-11.9-4.8-26.9c-1.3-8-4.4-21-8.5-33c-1.7-4.9-5.9-11-6.8-17.8c-1.3-9.7-1.5-14.8-0.8-22c0.4-4.9,0.1-7.6,0.2-10.5
	c2.6-1.9,5-3.5,5.8-8.7c0.5,4.1,0.7,13.2,1,17.3c0.6,6.6,1.6,17.1,1.6,23.5c0,4.1,3.5,20.1,7.5,37.5c4.4,19,10.1,39.7,12.3,48.9
	c1.9,7.1,2.6,12.4,2.6,13.5c0,4.4-2.5,9.8-2,14.9c0.3,2.5,2,6.2,2,9.1c0,2.9-1.8,13.9,3.1,13.6c3.4-0.2,3.6-5.6,3.8-7.8
	c0.2-2.2-1.1-7.9,1.5-7.4c1.6,0.3,2,11.5,0.6,14.4c-1.5,2.9-5.5,5-6.6,5.9c-1.1,0.9-4,2.4-3.4,4.7c0.4,1.8,2.9,0.9,2.9,0.9
	s0.7,1.5,2.2,1.5c1.5,0,11.6-6.1,13.6-8.7c2.2-2.9,4.5-14.7,4.5-18.1C217.4,362.8,215.5,357.2,213.7,352z"/>
</svg>