<svg version="1.0" id="Layer_1" xmlns="http://www.w3.org/2000/svg" xmlns:xlink="http://www.w3.org/1999/xlink" x="0px" y="0px"
	 viewBox="0 0 235 657" style="enable-background:new 0 0 235 657;" xml:space="preserve">
<style type="text/css">
	.st0{fill:#f7d4cd;}
</style>
<path class="st0" d="M138.6,90.6c0.3,4.5,1.8,8.7,2.8,10.3c2.8,4.7,6.4,7.1,11.5,8.4c8,2.2,15.8,3.3,23.7,6
	c30.5,10.2,42.5,44.4,42.3,74.9c-0.1,14.5,2,24.5,2.8,34.2c0.6,7,4.1,18.5,6,28.8c1.7,9.4,1.6,54.4,2.7,65.2
	c0.3,4.6-0.2,17.6,0,18.1c1,1.9,1.1,2.6,1.4,4c0.4,1.9-0.8,2.6-0.1,5c0.3,1-0.4,4.6,0.8,8.3c1.8,5.2,2.4,10.8,2.4,11.9
	c0,3.4-4.1,16.1-6.3,19c-2,2.7-12.2,8.7-13.6,8.7c-1.5,0-2.2-1.5-2.2-1.5s-2.5,0.9-2.9-0.9c-0.5-2.4,2.4-3.8,3.4-4.7
	c1.1-0.9,5.1-3,6.6-5.9c1.5-2.9,1.1-14.1-0.6-14.4c-2.6-0.5-1.3,5.3-1.5,7.4c-0.2,2.2-0.4,7.6-3.8,7.8c-4.9,0.3-3.1-10.7-3.1-13.6
	c0-2.9-1.7-6.5-2-9.1c-0.5-5.1,0.1-10.5,0.1-14.9c0-1.2-1.3-6.4-3.2-13.5c-4.2-17.8-17.2-77.9-17.2-86.4c0-6.4-5.9-21.4-6.6-28
	c-0.4-4.1,0.1-13.5-0.4-17.6c-0.4,7.5,0.3,9.4-2.4,13c-0.1,2.9,3,20.6,4.3,30.3c0.9,6.8,2.4,12.9,4.1,17.8
	c10.7,30.7,16,64.4,16.1,96.9c0,0.1,0,0.3,0,0.4c-0.1,40.1-21.8,89.9-22,93c-0.2,3,0.7,9.3,0.4,13.2c-0.2,3.9-1.7,11.1-1.7,14.8
	c0,3.7,2.1,16.9,2.7,32.6c2.2,51.3-16.1,90.4-16.3,95.4c-0.2,5,0.9,8,1.1,9.9c0.3,1.9,1.3,6.5,0.9,8.8c3.4,6.6,10.5,15.3,13.2,16.7
	c2.7,1.3,4.2,3.1,4.9,4.7c0.3,0.7,0,1.6-0.5,1.9c0.7,2-0.8,2.9-1.8,2.8c0,0.9-0.6,1.5-1.1,1.8c-1.8,1-3-0.6-3-0.6s0.2,1.5-1.8,2.5
	c-1.8,1-4.4-1.1-4.4-1.1s1.2,2.3-1.4,3.6c-1.9,1-5.2,0.7-7.7-0.5c-4.1-1.8-7.1-5.6-7.4-6c-0.6-0.6-3.1-1.1-4.8-2.6
	c-2.7-2.4-2.4-3.9-3.3-4.9c-0.5-0.6-4.8-0.7-7.9-3.8c-2.3-2.3-1.9-7.3-1.4-9.1c0.8-3.2-0.6-6.8-0.6-7.9c0-1.1-1-4.5-0.9-6.6
	c0.1-2.1,1.4-6.4,1.6-12.1c0.2-5-11.4-57-11.4-82.6c0-9.8,3-15,2.8-21.5c-0.2-6.5-6.3-21.3-7.4-34.9c-1.1-13.7,1-17.1,0.5-23.9
	c-0.2-3.1-3.4-18.5-5-34.9c-1.9-19.1-1.9-31.7-2.1-35.8c-0.3-5.8-0.4-10.7-0.4-13.8c-0.1,3.1-0.1,8-0.4,13.8
	c-0.2,4.1-0.3,16.6-2.1,35.8c-1.6,16.4-4.8,31.8-5,34.9c-0.4,6.7,1.6,10.2,0.5,23.9c-1.1,13.7-7.2,28.4-7.4,34.9
	c-0.2,6.5,2.8,11.7,2.8,21.5c0,25.6-11.6,77.6-11.4,82.6c0.2,5.7,1.4,10,1.6,12.1c0.1,2.1-0.9,5.5-0.9,6.6c0,1.1-1.4,4.7-0.6,7.9
	c0.5,1.9,0.8,6.9-1.4,9.1c-3.1,3.1-7.4,3.2-7.9,3.8c-0.9,1-0.6,2.5-3.3,4.9c-1.7,1.5-4.2,2.1-4.8,2.6c-0.4,0.3-3.4,4.2-7.4,6
	c-2.5,1.1-5.8,1.5-7.7,0.5c-2.6-1.4-1.4-3.6-1.4-3.6s-2.5,2-4.4,1.1c-2-1-1.8-2.5-1.8-2.5s-1.2,1.6-3,0.6c-0.5-0.2-1.1-0.9-1.1-1.8
	c-1,0.2-2.5-0.8-1.8-2.8c-0.5-0.4-0.8-1.3-0.5-1.9c0.7-1.5,2.3-3.3,4.9-4.7c2.7-1.3,9.7-10,13.2-16.7c-0.4-2.3,0.6-6.9,0.9-8.8
	c0.3-1.9,1.3-4.9,1.1-9.9c-0.2-5-18.5-44-16.3-95.4c0.7-15.7,2.7-28.9,2.7-32.6c0-3.7-1.5-10.9-1.7-14.8c-0.2-3.9,0.7-10.2,0.4-13.2
	c-0.2-3-21.9-52.9-22-93c0-0.1,0-0.3,0-0.4c0-32.5,5.4-66.2,16.1-96.9c1.7-4.9,3.2-11,4.1-17.8c1.3-9.7,4.4-27.4,4.3-30.3
	c-2.7-3.6-2-5.6-2.4-13c-0.5,4.1-0.1,13.6-0.4,17.6c-0.6,6.6-6.6,21.6-6.6,28c0,8.6-13,68.7-17.2,86.4c-1.9,7.1-3.2,12.4-3.2,13.5
	c0,4.4,0.7,9.8,0.1,14.9c-0.3,2.5-2,6.2-2,9.1c0,2.9,1.8,13.9-3.1,13.6c-3.4-0.2-3.6-5.6-3.8-7.8c-0.2-2.2,1.1-7.9-1.5-7.4
	c-1.6,0.3-2,11.5-0.6,14.4c1.5,2.9,5.5,5,6.6,5.9c1.1,0.9,4,2.4,3.4,4.7c-0.4,1.8-2.9,0.9-2.9,0.9s-0.7,1.5-2.2,1.5
	c-1.5,0-11.6-6.1-13.6-8.7c-2.2-2.9-6.3-15.7-6.3-19c0-1.1,0.6-6.7,2.4-11.9c1.3-3.7,0.5-7.3,0.8-8.3c0.7-2.4-0.5-3.1-0.1-5
	c0.3-1.4,0.4-2.1,1.4-4c0.2-0.4-0.3-13.5,0-18.1c1.1-10.8,2.6-55.8,4.4-65.2c1.9-10.3,4.7-20.9,5.3-27.9
	c3.4-38.9-2.6-94.4,44.2-110.1c7.8-2.6,12.7-3.8,20.7-6c5.1-1.4,10.1-3.7,12.9-8.4c0.9-1.6,2.5-5.6,2.8-10c-1.1-0.2-2.1-0.3-2.9-0.4
	c-4.6-0.7-15.9-4.2-22-17.7c-7.4-16.5,7.3-51.8,12.3-58c5-6.2,10.9-14.2,22.6-12.1c13.7-6.6,42-0.3,49.4,14.8
	c3.9,8,5.1,25.4,4.2,34.5c-0.8,9.1,0.5,21.2,13,23.3C164.4,83.6,150.6,90.6,138.6,90.6z"/>
</svg>