<svg version="1.0" id="Layer_1" xmlns="http://www.w3.org/2000/svg" xmlns:xlink="http://www.w3.org/1999/xlink" x="0px" y="0px"
	 viewBox="0 0 235 657" style="enable-background:new 0 0 235 657;" xml:space="preserve">
<style type="text/css">
	.st0{fill:#F48A20;}
</style>
<path class="st0" d="M225.1,340c0-2.8,0.5-5.8,0.7-8.5c0.2-2.4-0.6-5-0.7-7.5c-0.5-11.2,0.6-23.2,0.3-34.7
	c-0.3-12.3-2.3-25.4-4.2-37.4c-0.9-5.6-3.2-11.3-4.2-16.9c-3.6-18.9-3.5-41.9-6-61c-4-29.9-9.2-48.9-32.8-60.7
	c-8.4-4.2-34.2-6.5-38.4-15.8c-2.1-4.8-1.6-7.6-1.4-13.6c3.8-4.5,5.9-11.2,7.1-15.4c3.4-0.2,2.7-6.2,3.2-7.7
	c0.5-1.5,3.2-10.3,2.3-11.5c-0.9-1.2-1.9,0-1.9,0s0.5-17.4-3.1-26.8c-2.6-6.8-8.4-12.3-15.1-15c-6.3-2.5-13.4-3-20-1.8
	c-7.3,1.3-13.9,5.3-18.3,11.3c0,0,0,0.1-0.1,0.1c-4,5.6-5.1,12.4-5.7,19.1c-0.4,4.3-0.5,8.6-0.5,12.9c0,0.1,0,0.1,0,0.2
	c0,0-1-1.2-1.9,0c-0.9,1.2,1.9,10,2.3,11.5c0.5,1.5-0.2,7.4,3.2,7.7c1.2,4.2,3.3,10.9,7.1,15.4c0.1,6,0.7,8.8-1.4,13.6
	c-4.2,9.3-30,11.6-38.4,15.8c-23.6,11.9-28.8,30.9-32.8,60.7c-2.6,19-2.4,42.1-6,61c-1.1,5.6-3.3,11.3-4.2,16.9
	c-2,11.9-4,25.1-4.2,37.4c-0.3,11.6,0.8,23.5,0.3,34.7c-0.1,2.4-0.9,5-0.7,7.5c0.2,2.8,0.7,5.8,0.7,8.5c0,7.9-1.6,17.3-0.4,25
	c0.8,5.7,5,15.8,9.1,19.3c3.6,3.1,11.1,7.9,14.8,8.2c0.3,0,1.2-2.8,0.3-4.6c-1.4-2.9-6.2-5.2-7.5-7.4c-1.3-2.2-1.4-5.1-1.6-7.6
	c-0.2-2.3-0.8-4.7,0-7c0.3-1,1.4-3.9,2.7-3.9c0.3,0,2.1,1.7,2.2,2.9c0.3,2.2,0.1,4.7,0.3,6.9c0.2,2.7,1.9,8.2,4.6,8.7
	c2.1,0.3,2.2-0.3,2.7-1.3c0.5-1-0.6-5.1-0.2-6.6c0.4-1.4,0-4.1-0.3-5.3c-0.7-3.3,0.2-7.5-0.2-11c-0.5-3.7-2-8.3-4.1-11.3
	c-1.8-2.5-3-5.2-3.9-8.1c-1-3.4-0.7-8.2,0.3-11.8c4-14,9.3-27.5,14.1-43.2c4.3-14.2,6.3-29.6,8.1-44.2c0.2-1.6,0.7-5.3,1-8.1
	c0.1,5.2,0.8,7,1.6,10c1.9,7.1-3.8,25.3-6.4,41.2c-3.7,22.8-5.6,25.7-5.8,32.4c-0.2,5.8-1.6,15.4-2.2,23.4
	c-2,28.2,0.3,40.3,4.5,61.5c3,15.5,7.7,30.9,11,46.2c1.2,5.8,0.7,12.2,0.4,18.1c-0.2,5.4,0.6,11,0.2,16.3c-0.7,10.5-4.5,21-4.3,31.7
	c0.3,23.3,4.9,48.9,11.2,71.2c1.8,6.3,4.7,15.1,3.1,20.5c-1.4,4.8-3.3,9.9-6,15.2c-1.8,3.5-6.8,5.8-9.9,8c-2,1.3-3.8,3.2-5.6,4.6
	c-0.8,0.6-3.6,2.3-4.4,3.5c-1.2,1.7-0.3,2.5-0.1,2.5c-1.2,1.1-1.1,2.9-0.1,3.1c-0.6,1.7,0.3,2.7,1.4,2.5c-0.7,1.4,0.8,2.9,2.2,2.4
	c0.8,2.9,4.8,2.3,6.8,1.2c0.3,3.2,4.7,3.9,7.1,3.4c2.9-0.5,5.7-1.4,8.1-3.3c1-0.8,2.4-3.1,3-3.7c1.9-1.6,4.7-2.4,6.6-4.1
	c1.7-1.6,2.3-4.2,3.4-5.9c1.2-1.7,3.7-3.7,5.9-4c3-0.5,7-1.5,8.4-4.7c1.4-3.1,1.5-7.4,0.7-10.6c-0.6-2.4-1-4.9-1-7.3
	c0-0.8,0.6-2.9,0.3-5.2c-0.4-2.5-0.2-4.4-0.6-6.3c-0.6-3,4.4-23.5,6-35.5c1.4-11.2,2.9-22.3,3.4-33.5c0.3-7,0.1-14.1-0.7-21.1
	c-0.4-3.8-1.3-7.8-0.9-11.5c1.3-10.5,7.3-20.8,8.7-31.4c1.4-10.3,3.2-21.1,4.1-31.5c1-11.9,1.4-21,2.7-34.8c0.7-7,0.6-17.3,1.6-34.8
	c0.4,0.1,0.7,0.1,1,0.1v0c0,0,0,0,0.1,0c0,0,0,0,0.1,0v0c0.3,0,0.8-0.1,1.1-0.1c1.1,17.6,1,27.9,1.6,34.8
	c1.3,13.8,1.7,22.9,2.7,34.8c0.9,10.4,2.6,21.2,4.1,31.5c1.5,10.7,7.5,20.9,8.7,31.4c0.4,3.7-0.4,7.8-0.9,11.5
	c-0.8,7-1,14.1-0.7,21.1c0.5,11.2,2,22.3,3.4,33.5c1.5,11.9,6.5,32.4,6,35.5c-0.4,1.9-0.2,3.8-0.6,6.3c-0.3,2.3,0.3,4.4,0.3,5.2
	c0,2.4-0.4,4.9-1,7.3c-0.8,3.2-0.7,7.5,0.7,10.6c1.4,3.2,5.4,4.2,8.4,4.7c2.2,0.3,4.7,2.3,5.9,4c1.2,1.7,1.7,4.3,3.4,5.9
	c1.9,1.7,4.7,2.5,6.6,4.1c0.6,0.5,2,2.8,3,3.7c2.4,1.9,5.2,2.7,8.1,3.3c2.4,0.4,6.8-0.3,7.1-3.4c2,1,6,1.6,6.8-1.2
	c1.4,0.4,2.9-1,2.2-2.4c1,0.2,2-0.8,1.4-2.5c1-0.1,1-2-0.1-3.1c0.2,0,1-0.8-0.1-2.5c-0.8-1.2-3.6-2.9-4.4-3.5
	c-1.9-1.5-3.6-3.3-5.6-4.6c-3.1-2.1-8.1-4.4-9.9-8c-2.7-5.2-4.5-10.3-6-15.2c-1.6-5.4,1.3-14.2,3.1-20.5
	c6.2-22.3,10.8-47.9,11.2-71.2c0.2-10.6-3.7-21.2-4.3-31.7c-0.3-5.3,0.5-10.9,0.2-16.3c-0.3-5.9-0.8-12.3,0.4-18.1
	c3.3-15.3,8-30.7,11-46.2c4.1-21.1,6.4-33.3,4.5-61.5c-0.6-7.9-2-17.6-2.2-23.4c-0.3-6.7-2.1-9.7-5.8-32.4
	c-2.6-16-8.3-34.1-6.4-41.2c0.8-3,1.4-4.8,1.6-10c0.3,2.7,0.8,6.5,1,8.1c1.8,14.5,3.8,30,8.1,44.2c4.8,15.8,10.1,29.3,14.1,43.2
	c1,3.6,1.3,8.4,0.3,11.8c-0.8,2.9-2,5.6-3.9,8.1c-2.2,3-3.7,7.7-4.1,11.3c-0.5,3.5,0.5,7.7-0.2,11c-0.3,1.2-0.7,3.9-0.3,5.3
	c0.4,1.4-0.7,5.6-0.2,6.6c0.5,1,0.6,1.6,2.7,1.3c2.7-0.4,4.4-5.9,4.6-8.7c0.2-2.2,0-4.6,0.3-6.9c0.2-1.3,1.9-2.9,2.2-2.9
	c1.4,0,2.4,2.8,2.7,3.9c0.8,2.3,0.2,4.7,0,7c-0.2,2.5-0.3,5.4-1.6,7.6c-1.3,2.2-6.1,4.4-7.5,7.4c-0.9,1.9,0,4.6,0.3,4.6
	c3.7-0.2,11.2-5.1,14.8-8.2c4.1-3.5,8.2-13.5,9.1-19.3C226.6,357.3,225,348,225.1,340z"/>
</svg>