<svg version="1.0" id="Layer_1" xmlns="http://www.w3.org/2000/svg" xmlns:xlink="http://www.w3.org/1999/xlink" x="0px" y="0px"
	 viewBox="0 0 235 657" style="enable-background:new 0 0 235 657;" xml:space="preserve">
<style type="text/css">
	.st0{fill:#f9efc8;}
</style>
<path class="st0" d="M219.7,354.7c-1.3-3.7-0.8-7.3-1.1-8.3c-0.7-2.4-0.1-3.1-0.5-5c-0.3-1.4-0.4-2.1-1.4-4
	c-0.2-0.4,0-13.5-0.3-18.1c-1.1-10.8-1.4-56.7-3.2-66.1c-1.9-10.3-5.2-20.9-5.8-27.9c-1.1-12.2,0.4-24.4,0.5-36.6
	c0.2-12-1.7-23.6-4.8-35.2c-2.6-9.9-6.2-20.8-13.2-28.6c-6.6-7.4-17-11.2-26.4-13.5c-7.8-1.9-19.7-2.2-23.8-10.6l-0.1-0.3
	c-0.8-1.3-2.3-5.2-2.8-8.9c12.3-1.8,23.8-6.3,32.2-16.5c-12.4-2.1-13.8-14.1-13-23.3c0.8-9.1-0.3-26.5-4.2-34.5
	C144.4,2.3,121.3-4,107.6,2.6C96,0.5,90.1,8.5,85.1,14.7c-5,6.2-19.7,41.5-12.3,58c6.1,13.5,17.4,17,22,17.7
	c0.8,0.1,1.8,0.3,2.9,0.4c-0.3,4.5-1.8,8.5-2.8,10c-5,8.3-15.5,8.7-23.9,10.9C62.2,114,51.2,118,45,125
	c-7.4,8.3-11.4,19.2-13.9,29.9c-2.6,10.8-4.6,22.1-3.8,33.3c1,14.5,1.1,27.5,0.3,37.3c-0.6,7-3.9,17.6-5.8,27.9
	c-1.7,9.4-2.1,55.3-3.2,66.1c-0.3,4.6,0.2,17.6,0,18.1c-1,1.9-1.1,2.6-1.4,4c-0.4,1.9,0.8,2.6,0.1,5c-0.3,1-0.4,4.6-1.7,8.3
	c-1.8,5.2-3.5,10.8-3.5,11.9c0,3.4,2.3,15.2,4.5,18.1c2,2.7,12.2,8.7,13.6,8.7c1.5,0,2.2-1.5,2.2-1.5s2.5,0.9,2.9-0.9
	c0.5-2.4-2.4-3.8-3.4-4.7c-1.1-0.9-5.1-3-6.6-5.9c-1.5-2.9-1.1-14.1,0.6-14.4c2.6-0.5,1.3,5.3,1.5,7.4c0.2,2.2,0.4,7.6,3.8,7.8
	c4.9,0.3,3.1-10.7,3.1-13.6c0-2.9,1.7-6.5,2-9.1c0.5-5.1-2-10.5-2-14.9c0-1.2,1.3-6.4,3.2-13.5c4.2-17.8,19-77.9,19-86.4
	c0-6.4,3.2-21.4,3.8-28c0.4-4.1-0.1-13.5,0.4-17.6c0.7,5.3,1.7,11.1,4.3,13c0.1,2.9-1.9,20.6-3.2,30.3c-0.9,6.8-3.2,12.9-4.9,17.8
	c-10.7,30.7-15.3,64.4-15.3,96.9c0,0.1,0,0.3,0,0.4c0.1,40.1,19.2,89.9,19.4,93c0.2,3-0.7,9.3-0.4,13.2c0.2,3.9,1.7,11.1,1.7,14.8
	c0,3.7-4.8,16.9-5.5,32.6c-2.2,51.3,12.2,90.4,12.4,95.4c0.2,5-0.9,8-1.1,9.9c-0.3,1.9-1.3,6.5-0.9,8.8
	c-3.4,6.6-11.6,15.3-14.3,16.7c-2.7,1.3-4.2,3.1-4.9,4.7c-0.3,0.7,0,1.6,0.5,1.9c-0.7,2,0.8,2.9,1.8,2.8c0,0.9,0.6,1.5,1.1,1.8
	c1.8,1,3-0.6,3-0.6s-0.2,1.5,1.8,2.5c1.8,1,4.4-1.1,4.4-1.1s-1.2,2.3,1.4,3.6c1.9,1,5.2,0.7,7.7-0.5c4.1-1.8,7.1-5.6,7.4-6
	c0.6-0.6,3.1-1.1,4.8-2.6c2.7-2.4,2.4-3.9,3.3-4.9c0.5-0.6,4.8-0.7,7.9-3.8c2.3-2.3,1.9-7.3,1.4-9.1c-0.8-3.2-0.3-6.8-0.3-7.9
	c0-1.1-0.1-4.5-0.2-6.6c-0.1-2.1-1.4-6.4-1.6-12.1c-0.2-5,13.6-57,13.6-82.6c0-9.8-3-15-2.8-21.5c0.2-6.5,6.3-21.3,7.4-34.9
	c1.1-13.7-1.5-17.1-1.1-23.9c0.2-3.1,2-18.5,3.6-34.9c1.9-19.1,2.8-31.7,3.1-35.8c0.3-5.8,0.4-10.7,0.4-13.8h1.1
	c0.1,3.1,0.3,8,0.6,13.8c0.2,4.1,1.2,16.6,3.1,35.7c1.6,16.4,3.4,31.8,3.6,34.9c0.4,6.7-2.2,10.2-1.1,23.9
	c1.1,13.7,7.2,28.4,7.4,34.9c0.2,6.5-2.8,11.7-2.8,21.5c0,25.6,13.8,77.6,13.6,82.6c-0.2,5.7-1.4,10-1.6,12.1
	c-0.1,2.1-0.2,5.5-0.2,6.6c0,1.1,0.5,4.7-0.3,7.9c-0.5,1.9-0.8,6.9,1.4,9.1c3.1,3.1,7.4,3.2,7.9,3.8c0.9,1,0.6,2.5,3.3,4.9
	c1.7,1.5,4.2,2.1,4.8,2.6c0.4,0.3,3.4,4.2,7.4,6c2.5,1.1,5.8,1.5,7.7,0.5c2.6-1.4,1.4-3.6,1.4-3.6s2.5,2,4.4,1.1
	c2-1,1.8-2.5,1.8-2.5s1.2,1.6,3,0.6c0.5-0.2,1.1-0.9,1.1-1.8c1,0.2,2.5-0.8,1.8-2.8c0.5-0.4,0.8-1.3,0.5-1.9
	c-0.7-1.5-2.3-3.3-4.9-4.7c-2.7-1.3-10.8-10-14.3-16.7c0.4-2.3-0.6-6.9-0.9-8.8c-0.3-1.9-1.3-4.9-1.1-9.9c0.2-5,14.7-44,12.4-95.4
	c-0.7-15.7-5.5-28.9-5.5-32.6c0-3.7,1.5-10.9,1.7-14.8c0.2-3.9-0.7-10.2-0.4-13.2c0.2-3,19.3-52.9,19.4-93c0-0.1,0-0.3,0-0.4
	c0-32.5-4.7-66.2-15.3-96.9c-1.7-4.9-4-11-4.9-17.8c-1.3-9.7-3.3-27.4-3.2-30.3c2.6-1.9,3.6-7.8,4.3-13c0.5,4.1,0.1,13.6,0.4,17.6
	c0.6,6.6,3.8,21.6,3.8,28c0,8.6,14.8,68.7,19,86.4c1.9,7.1,3.2,12.4,3.2,13.5c0,4.4-2.5,9.8-2,14.9c0.3,2.5,2,6.2,2,9.1
	c0,2.9-1.8,13.9,3.1,13.6c3.4-0.2,3.6-5.6,3.8-7.8c0.2-2.2-1.1-7.9,1.5-7.4c1.6,0.3,2,11.5,0.6,14.4c-1.5,2.9-5.5,5-6.6,5.9
	c-1.1,0.9-4,2.4-3.4,4.7c0.4,1.8,2.9,0.9,2.9,0.9s0.7,1.5,2.2,1.5c1.5,0,11.6-6.1,13.6-8.7c2.2-2.9,4.5-14.7,4.5-18.1
	C222.9,365.5,221.5,359.9,219.7,354.7z"/>
</svg>