<svg version="1.0" id="Layer_1" xmlns="http://www.w3.org/2000/svg" xmlns:xlink="http://www.w3.org/1999/xlink" x="0px" y="0px"
	 viewBox="0 0 235 657" style="enable-background:new 0 0 235 657;" xml:space="preserve">
<style type="text/css">
	.st0{fill:#FAC90E;}
</style>
<path class="st0" d="M216.6,341.4c0-2.8,0.5-5.8,0.7-8.5c0.2-2.4-0.6-5-0.7-7.5c-0.5-11.2,1-23.2,0.7-34.7
	c-0.3-12.3,0.5-25.4-1.5-37.4c-0.9-5.6-3.2-11.3-4.2-16.9c-3.6-18.9-3.5-41.9-6-61c-4-29.9-8.2-48.9-31.8-60.7
	c-8.4-4.2-30.7-6.5-34.9-15.8c-2.1-4.8-2.3-9-2.1-15c3.8-4.5,5.9-11.2,7.1-15.4c3.4-0.2,2.7-6.2,3.2-7.7c0.5-1.5,3.2-10.3,2.3-11.5
	c-0.9-1.2-1.9,0-1.9,0s1.9-16-1.7-25.4c-2.4-6.2-7.7-11.4-13.6-14.3c-12.8-6.4-30.3-3.2-39.1,8.2c-4.5,5.8-5.6,12.8-5.7,20
	c-0.1,3.8,0,7.7,0.5,11.5c0,0-1-1.2-1.9,0s1.9,10,2.3,11.5c0.5,1.5-0.2,7.4,3.2,7.7c1.2,4.2,3.3,10.9,7.1,15.4
	c0.1,6-0.3,10.2-2.4,15c-4.2,9.3-26.2,11.6-34.6,15.8c-23.6,11.9-27.8,30.9-31.8,60.7c-2.6,19-2.4,42.1-6,61
	c-1.1,5.6-3.3,11.3-4.2,16.9c-2,11.9-1.2,25.1-1.5,37.4c-0.3,11.6,1.2,23.5,0.7,34.7c-0.1,2.4-0.9,5-0.7,7.5
	c0.2,2.8,0.7,5.8,0.7,8.5c0,7.9-3,17.3-1.8,25c0.8,5.7,5,15.8,9.1,19.3c3.6,3.1,11.1,7.9,14.8,8.2c0.3,0,1.2-2.8,0.3-4.6
	c-1.4-2.9-6.2-5.2-7.5-7.4c-1.3-2.2-1.4-5.1-1.6-7.6c-0.2-2.3-0.8-4.7,0-7c0.3-1,1.4-3.9,2.7-3.9c0.3,0,2.1,1.7,2.2,2.9
	c0.3,2.2,0.1,4.7,0.3,6.9c0.2,2.7,1.9,8.2,4.6,8.7c2.1,0.3,2.2-0.3,2.7-1.3c0.5-1-0.6-5.1-0.2-6.6c0.4-1.4,0-4.1-0.3-5.3
	c-0.7-3.3,0.2-7.5-0.2-11c-0.5-3.7-2-8.3-4.1-11.3c-1.8-2.5-3-5.2-3.9-8.1c-1-3.4-0.7-8.2,0.3-11.8c4-14,9.4-28.6,11.8-43.2
	c2.4-14.6,5.9-29.6,7.7-44.2c0.3-2.8,1.5-9.2,2.1-15.7c0.1,2.4,0.4,4.9,1,7.2c0.9,3.6,3.3,6.3,4.1,9.4c1.9,7.1-6.8,26.3-9.4,42.3
	c-3.7,22.8-1.2,25.7-1.5,32.4c-0.2,5.8-4.6,15.4-5.1,23.4c-2,28.2-2.5,40.3,1.7,61.5c3,15.5,7.4,30.9,10.7,46.2
	c1.2,5.8,0.7,12.2,0.4,18.1c-0.2,5.4,0.6,11,0.2,16.3c-0.7,10.5-4.5,21-4.3,31.7c0.3,23.3,6.4,47.8,9.8,71.2
	c0.9,6.5,4.1,15.1,2.5,20.5c-1.4,4.8-5.5,9.9-8.2,15.2c-1.8,3.5-6.8,5.8-9.9,8c-2,1.3-3.8,3.2-5.6,4.6c-0.8,0.6-3.6,2.3-4.4,3.5
	c-1.2,1.7-0.3,2.5-0.1,2.5c-1.2,1.1-1.1,2.9-0.1,3.1c-0.6,1.7,0.3,2.7,1.4,2.5c-0.7,1.4,0.8,2.9,2.2,2.4c0.8,2.9,4.8,2.3,6.8,1.2
	c0.3,3.2,4.7,3.9,7.1,3.4c2.9-0.5,5.7-1.4,8.1-3.3c1-0.8,2.4-3.1,3-3.7c1.9-1.6,4.7-2.4,6.6-4.1c1.7-1.6,2.3-4.2,3.4-5.9
	c1.2-1.7,3.7-3.7,5.9-4c3-0.5,7-1.5,8.4-4.7c1.4-3.1,0.9-7.4,0.1-10.6c-0.6-2.4-1.6-4.9-1.6-7.3c0-0.8,0.6-2.9,0.3-5.2
	c-0.4-2.5-1.6-4.4-2-6.3c-0.6-3,3.9-27,5.5-35.5c2.1-11,4.4-22.3,4.9-33.5c0.3-7,0.1-14.1-0.7-21.1c-0.4-3.8-1.3-7.8-0.9-11.5
	c1.3-10.5,7.3-20.8,8.7-31.4c1.4-10.3,1.2-21.1,2.1-31.5c1-11.9,1.7-22.9,3.5-34.8c1.1-6.9,2.6-17.7,4.2-34.8
	c0.4,0.1,0.9,0.1,1.1,0.1c0,0,0,0,0,0c0,0,0,0,0,0c0.2,0,0.5-0.1,0.9-0.1c1.6,17.2,3.1,27.9,4.2,34.8c1.9,11.9,2.5,22.9,3.5,34.8
	c0.9,10.4,0.7,21.2,2.1,31.5c1.5,10.7,7.5,20.9,8.7,31.4c0.4,3.7-0.4,7.8-0.9,11.5c-0.8,7-1,14.1-0.7,21.1
	c0.5,11.2,2.8,22.4,4.9,33.5c1.6,8.5,6.1,32.4,5.5,35.5c-0.4,1.9-1.6,3.8-2,6.3c-0.3,2.3,0.3,4.4,0.3,5.2c0,2.4-1,4.9-1.6,7.3
	c-0.8,3.2-1.2,7.5,0.1,10.6c1.4,3.2,5.4,4.2,8.4,4.7c2.2,0.3,4.7,2.3,5.9,4c1.2,1.7,1.7,4.3,3.4,5.9c1.9,1.7,4.7,2.5,6.6,4.1
	c0.6,0.5,2,2.8,3,3.7c2.4,1.9,5.2,2.7,8.1,3.3c2.4,0.4,6.8-0.3,7.1-3.4c2,1,6,1.6,6.8-1.2c1.4,0.4,2.9-1,2.2-2.4
	c1,0.2,2-0.8,1.4-2.5c1-0.1,1-2-0.1-3.1c0.2,0,1-0.8-0.1-2.5c-0.8-1.2-3.6-2.9-4.4-3.5c-1.9-1.5-3.6-3.3-5.6-4.6
	c-3.1-2.1-8.1-4.4-9.9-8c-2.7-5.2-6.8-10.3-8.2-15.2c-1.6-5.4,1.6-14,2.5-20.5c3.4-23.4,9.4-47.9,9.8-71.2
	c0.2-10.6-3.7-21.2-4.3-31.7c-0.3-5.3,0.5-10.9,0.2-16.3c-0.3-5.9-0.8-12.3,0.4-18.1c3.3-15.3,7.7-30.7,10.7-46.2
	c4.1-21.1,3.6-33.3,1.7-61.5c-0.6-7.9-4.9-17.6-5.1-23.4c-0.3-6.7,2.2-9.7-1.5-32.4c-2.6-16-11.2-35.2-9.4-42.3
	c0.8-3.1,3.2-5.8,4.1-9.4c0.6-2.4,0.9-4.8,1-7.2c0.5,6.5,1.7,12.9,2.1,15.7c1.8,14.5,5.3,29.6,7.7,44.2c2.4,14.7,7.8,29.3,11.8,43.2
	c1,3.6,1.3,8.4,0.3,11.8c-0.8,2.9-2,5.6-3.9,8.1c-2.2,3-3.7,7.7-4.1,11.3c-0.5,3.5,0.5,7.7-0.2,11c-0.3,1.2-0.7,3.9-0.3,5.3
	c0.4,1.4-0.7,5.6-0.2,6.6c0.5,1,0.6,1.6,2.7,1.3c2.7-0.4,4.4-5.9,4.6-8.7c0.2-2.2,0-4.6,0.3-6.9c0.2-1.3,1.9-2.9,2.2-2.9
	c1.4,0,2.4,2.8,2.7,3.9c0.8,2.3,0.2,4.7,0,7c-0.2,2.5-0.3,5.4-1.6,7.6c-1.3,2.2-6.1,4.4-7.5,7.4c-0.9,1.9,0,4.6,0.3,4.6
	c3.7-0.2,11.2-5.1,14.8-8.2c4.1-3.5,8.2-13.5,9.1-19.3C219.5,358.7,216.5,349.3,216.6,341.4z"/>
</svg>